<svg width="130" height="53.066" viewBox="0 0 130 53.066" fill="none" xmlns="http://www.w3.org/2000/svg"><g clip-path="url(#a)"><path d="M29.818 52.568v-13.313l0.278 -0.278h2.773l0.278 0.278v13.313l-0.278 0.278h-2.773l-0.278 -0.278Zm0 -38.978V0.278L30.095 0h2.773l0.278 0.278v13.312l-0.278 0.278h-2.773l-0.278 -0.278ZM17.762 42.971h-0.392l-1.961 -1.962v-0.392l4.579 -4.578 2.076 0.001 0.279 0.277v2.076l-4.581 4.578Zm-0.002 -33.096h-0.392l-1.961 1.962v0.392l4.579 4.578 2.076 -0.001 0.279 -0.277v-2.076l-4.58 -4.578ZM0.278 24.758h18.86l0.278 0.278v2.773l-0.278 0.278H0.278L0 27.809V25.036l0.278 -0.278Zm111.695 0h17.751l0.278 0.278v2.773l-0.278 0.278h-18.859l-0.278 -0.278 1.109 -2.773 0.278 -0.278Z" fill="#05BDBA"/><path d="m53.842 27.606 -0.278 0.278h-8.603l-0.278 0.278c0 0.555 0.555 2.22 2.775 2.22 0.833 0 1.665 -0.278 1.942 -0.833l0.278 -0.278h3.33l0.278 0.278c-0.278 1.665 -1.665 4.163 -5.828 4.163 -4.718 0 -6.938 -3.33 -6.938 -7.215s2.22 -7.215 6.661 -7.215c4.441 0 6.661 3.33 6.661 7.215v1.111Zm-4.163 -2.775c0 -0.278 -0.278 -2.22 -2.498 -2.22 -2.22 0 -2.497 1.942 -2.497 2.22l0.278 0.278h4.44l0.278 -0.278Zm11.934 4.44c0 0.555 0.278 0.833 0.833 0.833h2.497l0.278 0.278v2.775l-0.278 0.278h-2.497c-2.498 0 -4.718 -1.111 -4.718 -4.163V23.166l-0.278 -0.278h-1.942l-0.278 -0.278V19.835l0.278 -0.278h1.942l0.278 -0.278v-2.498l0.278 -0.278h3.33l0.278 0.278v2.497l0.278 0.278h3.053l0.278 0.278v2.775l-0.278 0.278h-3.053l-0.278 0.278v6.106h-0.001Zm10.268 4.163h-3.33l-0.278 -0.278V14.286l0.278 -0.278H71.881l0.278 0.278v18.871l-0.278 0.278Zm7.493 -16.096h-3.33l-0.278 -0.278v-2.775l0.278 -0.278h3.33l0.278 0.278v2.775l-0.278 0.278Zm0 16.096h-3.33l-0.278 -0.278V19.836l0.278 -0.278h3.33l0.278 0.278v13.321l-0.278 0.278Zm13.043 -19.149v2.775l-0.278 0.278h-2.497c-0.555 0 -0.833 0.278 -0.833 0.833v1.111l0.278 0.278h2.775l0.278 0.278v2.775l-0.278 0.278h-2.775l-0.278 0.278v9.99l-0.278 0.278h-3.33l-0.278 -0.278V23.167l-0.278 -0.278h-1.942l-0.278 -0.278v-2.775l0.278 -0.278h1.942l0.278 -0.278v-1.111c0 -3.053 2.22 -4.163 4.718 -4.163h2.497l0.278 0.278h0.001Zm10.268 19.426c-1.111 2.775 -2.22 4.44 -6.106 4.44h-1.388l-0.278 -0.278v-2.775l0.278 -0.278h1.388c1.387 0 1.665 -0.278 1.942 -1.111v-0.278L94.081 22.61V19.835l0.278 -0.278h2.497l0.278 0.278 3.33 9.436h0.278l3.33 -9.436 0.278 -0.278h2.498l0.278 0.278v2.775l-4.44 11.101 -0.001 0.001Zm-68.292 -0.278 -0.278 -0.278 0.002 -8.041c0 -1.387 -0.545 -2.463 -2.22 -2.497 -0.861 -0.022 -1.846 -0.002 -2.899 0.043l-0.157 0.161 0.002 10.335 -0.278 0.278H25.236l-0.278 -0.278V19.688l0.278 -0.278 7.493 -0.068c3.754 0 5.273 2.579 5.273 5.49v8.325l-0.278 0.278h-3.332Z" fill="#fff"/></g><defs><clipPath id="a"><path fill="#fff" d="M0 0h130v52.844H0z"/></clipPath></defs></svg>